<mxfile host="app.diagrams.net" modified="2024-01-07T15:45:23.334Z" agent="Mozilla/5.0 (Windows NT 10.0; Win64; x64; rv:121.0) Gecko/20100101 Firefox/121.0" version="22.1.16" etag="bSnujQ3enn2yqbuSgNHU" type="github">
  <diagram name="Seite-1" id="Ce3VC-6TSBgN41ZOSyzR">
    <mxGraphModel>
      <root>
        <mxCell id="0" />
        <mxCell id="1" parent="0" />
      </root>
    </mxGraphModel>
  </diagram>
</mxfile>
